<!DOCTYPE svg PUBLIC "-//W3C//DTD SVG 1.1//EN" "http://www.w3.org/Graphics/SVG/1.1/DTD/svg11.dtd">
<!-- Uploaded to: SVG Repo, www.svgrepo.com, Transformed by: SVG Repo Mixer Tools -->
<svg fill="#ffffff" width="800px" height="800px" viewBox="0 0 32 32" xmlns="http://www.w3.org/2000/svg" stroke="#ffffff">
<g id="SVGRepo_bgCarrier" stroke-width="0"/>
<g id="SVGRepo_tracerCarrier" stroke-linecap="round" stroke-linejoin="round"/>
<g id="SVGRepo_iconCarrier"> <path d="M16,32A16,16,0,0,0,32,16,16,16,0,0,0,4.69,4.69a16,16,0,0,0,0,22.62A15.86,15.86,0,0,0,16,32ZM6.1,6.1a14,14,0,0,1,19.8,0h0a14,14,0,1,1-19.8,0Z"/> <path d="M16,25.18a9.15,9.15,0,0,0,6.49-2.69,1,1,0,0,0-1.41-1.41,7.18,7.18,0,1,1,0-10.16,1,1,0,0,0,1.41-1.41,9.17,9.17,0,0,0-13,0A9.18,9.18,0,0,0,16,25.18Z"/> </g>
</svg>