<!DOCTYPE svg PUBLIC "-//W3C//DTD SVG 1.1//EN" "http://www.w3.org/Graphics/SVG/1.1/DTD/svg11.dtd">
<!-- Uploaded to: SVG Repo, www.svgrepo.com, Transformed by: SVG Repo Mixer Tools -->
<svg fill="#dedede" height="800px" width="800px" version="1.1" xmlns="http://www.w3.org/2000/svg" viewBox="0 0 512 512" xmlns:xlink="http://www.w3.org/1999/xlink" enable-background="new 0 0 512 512" stroke="#dedede">
<g id="SVGRepo_bgCarrier" stroke-width="0"/>
<g id="SVGRepo_tracerCarrier" stroke-linecap="round" stroke-linejoin="round"/>
<g id="SVGRepo_iconCarrier"> <g> <polygon points="352,208 352,256 352,272 448,272 448,256 416.721,208 "/> <path d="m510.078,231.766l-47.82-80c-2.891-4.82-7.922-7.766-13.539-7.766h-128.719v-64c0-8.836-6.445-16-15.281-16h-288c-8.836,0-16.719,7.164-16.719,16v304c0,8.836 7.883,16 16.719,16h66.272c7.156,27.523 31.995,48 61.728,48 29.732,0 54.571-20.477 61.728-48h98.273 34.272c7.156,27.523 31.995,48 61.728,48 29.732,0 54.571-20.477 61.727-48h34.273c8.836,0 15.281-7.164 15.281-16v-144c-0.001-2.898-0.431-5.742-1.923-8.234zm-478.078-135.766h256v64 208h-81.554c-7.156-27.523-31.995-48-61.728-48-29.732,0-54.571,20.477-61.728,48h-50.99v-272zm112.719,320c-17.648,0-32-14.352-32-32s14.351-32 32-32c17.648,0 32,14.352 32,32s-14.352,32-32,32zm256,0c-17.648,0-32-14.352-32-32s14.352-32 32-32c17.648,0 32,14.352 32,32s-14.352,32-32,32zm79.281-48h-17.554c-7.156-27.523-31.995-48-61.727-48-29.733,0-54.571,20.477-61.728,48h-18.991v-192h119.656l40.344,68.43v123.57z"/> </g> </g>
</svg>