<!DOCTYPE svg PUBLIC "-//W3C//DTD SVG 1.1//EN" "http://www.w3.org/Graphics/SVG/1.1/DTD/svg11.dtd">
<!-- Uploaded to: SVG Repo, www.svgrepo.com, Transformed by: SVG Repo Mixer Tools -->
<svg fill="#ffffff" height="800px" width="800px" version="1.1" id="Capa_1" xmlns="http://www.w3.org/2000/svg" xmlns:xlink="http://www.w3.org/1999/xlink" viewBox="0 0 490 490" xml:space="preserve" stroke="#ffffff">
<g id="SVGRepo_bgCarrier" stroke-width="0"/>
<g id="SVGRepo_tracerCarrier" stroke-linecap="round" stroke-linejoin="round"/>
<g id="SVGRepo_iconCarrier"> <g> <path d="M328.4,106.2V48.9c0-11.5-9.4-20.9-20.9-20.9H20.9C9.4,28,0,37.4,0,48.9V370c0,11.5,9.4,20.9,20.9,20.9h24 c1,39.8,32.9,71.1,72.9,71.1c39,0,71.9-31.4,72.9-71.1h129.4c1,39.8,32.9,71.1,72.9,71.1c39.4,0,72.5-31.9,73-72.2 c0,0,22.3,2.7,24-21.9V229.2C490,188.9,464.6,92.7,328.4,106.2z M449.3,234.4H328.4v-86.5C444.9,136.7,447.6,213.2,449.3,234.4z M393,316c-25.9,0-48.4,13.1-61.3,33.1h-3.3v-73h120.9v66.1C436,326.2,415.8,316,393,316z M40.7,68.7h246v280.4H179.1 c-12.9-20-35.4-33.1-61.3-33.1s-48.4,13.1-61.3,33.1H40.7V68.7z M117.8,421.3c-17.7,0-32.3-14.6-32.3-32.3s14.6-32.3,32.3-32.3 s32.3,14.6,32.3,32.3C150.1,406.7,135.5,421.3,117.8,421.3z M393,421.3c-17.7,0-32.3-14.6-32.3-32.3s14.6-32.3,32.3-32.3 c17.7,0,31.3,14.6,32.3,32.3C425.4,406.7,410.8,421.3,393,421.3z"/> </g> </g>
</svg>