<!DOCTYPE svg PUBLIC "-//W3C//DTD SVG 1.1//EN" "http://www.w3.org/Graphics/SVG/1.1/DTD/svg11.dtd">
<!-- Uploaded to: SVG Repo, www.svgrepo.com, Transformed by: SVG Repo Mixer Tools -->
<svg fill="#d1d1d1" height="800px" width="800px" version="1.1" id="Layer_1" xmlns="http://www.w3.org/2000/svg" xmlns:xlink="http://www.w3.org/1999/xlink" viewBox="0 0 499.8 499.8" xml:space="preserve" stroke="#d1d1d1">
<g id="SVGRepo_bgCarrier" stroke-width="0"/>
<g id="SVGRepo_tracerCarrier" stroke-linecap="round" stroke-linejoin="round"/>
<g id="SVGRepo_iconCarrier"> <g> <g> <polygon points="411.89,274.955 397.31,289.335 471.04,364.065 397.31,438.795 411.89,453.175 499.8,364.065 "/> </g> </g> <g> <g> <polygon points="102.48,289.335 87.9,274.955 0,364.065 87.9,453.175 102.48,438.795 28.76,364.065 "/> </g> </g> <g> <g> <path d="M409.83,46.625H89.97l-57.33,114.66l217.26,217.26l217.26-217.26L409.83,46.625z M397.17,67.105l40.96,81.92H326.843 l-13.656-81.92H397.17z M207.373,67.105h85.054l13.656,81.92H193.717L207.373,67.105z M102.63,67.105h83.983l-13.656,81.92H61.67 L102.63,67.105z M69.82,169.505h104.434l52.22,156.654L69.82,169.505z M195.834,169.505h108.133L249.9,331.696L195.834,169.505z M273.326,326.159l52.22-156.654H429.98L273.326,326.159z"/> </g> </g> </g>
</svg>