<!DOCTYPE svg PUBLIC "-//W3C//DTD SVG 1.1//EN" "http://www.w3.org/Graphics/SVG/1.1/DTD/svg11.dtd">
<!-- Uploaded to: SVG Repo, www.svgrepo.com, Transformed by: SVG Repo Mixer Tools -->
<svg fill="#ffffff" height="800px" width="800px" version="1.1" id="Layer_1" xmlns="http://www.w3.org/2000/svg" xmlns:xlink="http://www.w3.org/1999/xlink" viewBox="0 0 472.615 472.615" xml:space="preserve" stroke="#ffffff">
<g id="SVGRepo_bgCarrier" stroke-width="0"/>
<g id="SVGRepo_tracerCarrier" stroke-linecap="round" stroke-linejoin="round"/>
<g id="SVGRepo_iconCarrier"> <g> <g> <polygon points="389.496,250.317 375.71,263.914 445.419,334.58 375.71,405.245 389.496,418.844 472.615,334.58 "/> </g> </g> <g> <g> <polygon points="96.906,263.914 83.119,250.317 0,334.58 83.119,418.844 96.906,405.245 27.196,334.58 "/> </g> </g> <g> <g> <polygon points="185.182,150.603 236.308,303.971 287.433,150.603 "/> </g> </g> <g> <g> <polygon points="164.776,150.603 66.022,150.603 214.156,298.735 "/> </g> </g> <g> <g> <polygon points="97.047,53.772 58.316,131.236 163.549,131.236 176.463,53.772 "/> </g> </g> <g> <g> <polygon points="276.521,53.772 196.094,53.772 183.181,131.236 289.434,131.236 "/> </g> </g> <g> <g> <polygon points="307.839,150.603 258.459,298.735 406.593,150.603 "/> </g> </g> <g> <g> <polygon points="375.568,53.772 296.153,53.772 309.066,131.236 414.299,131.236 "/> </g> </g> </g>
</svg>