<svg version="1.1" id="Layer_1" xmlns="http://www.w3.org/2000/svg" xmlns:xlink="http://www.w3.org/1999/xlink" x="0px" y="0px"
	 width="100%" viewBox="0 0 305 66" enable-background="new 0 0 305 66" xml:space="preserve">
<path fill="#FAFBFC" opacity="1.000000" stroke="none" 
	d="
M206.000000,67.000000 
	C137.333359,67.000000 69.166718,67.000000 1.000055,67.000000 
	C1.000037,45.000031 1.000037,23.000065 1.000018,1.000073 
	C102.666595,1.000048 204.333191,1.000048 305.999817,1.000024 
	C305.999878,22.999924 305.999878,44.999847 305.999939,66.999886 
	C272.833344,67.000000 239.666672,67.000000 206.000000,67.000000 
M39.602535,57.031643 
	C39.747868,56.686821 39.893204,56.341999 39.993607,55.992386 
	C39.993607,55.992386 40.000423,56.037052 40.749966,56.133289 
	C41.499207,56.101124 42.248447,56.068958 43.008812,55.990330 
	C43.008812,55.990330 42.961159,55.986881 43.016804,56.658424 
	C43.346260,56.955921 43.675716,57.253418 44.380066,57.981247 
	C45.736927,59.321053 47.093792,60.660858 48.870029,62.600857 
	C50.267124,62.738903 51.664223,62.876949 53.743454,62.939548 
	C63.264404,53.807125 72.785355,44.674706 82.939644,34.934784 
	C79.577629,32.228638 76.943321,30.108238 73.926796,27.407280 
	C66.431664,19.946991 58.936539,12.486703 51.327579,4.913113 
	C47.710907,8.326504 44.632938,11.231471 41.481819,14.205478 
	C38.031612,10.937105 34.960281,8.027638 30.807972,4.094168 
	C21.233091,14.153653 12.046332,23.762751 2.974831,33.479450 
	C2.579243,33.903179 3.241185,35.314217 3.747254,36.874714 
	C11.161155,44.321384 18.575056,51.768055 26.081602,59.872326 
	C27.387499,60.915054 28.693396,61.957783 30.545050,63.228683 
	C32.818703,65.965416 33.272549,63.535095 33.990143,61.990376 
	C33.990143,61.990376 33.989910,62.041538 34.583748,62.004242 
	C34.736214,61.666447 34.888680,61.328655 34.988712,60.988636 
	C34.988712,60.988636 34.990860,61.041077 35.588539,61.011406 
	C35.739204,60.671673 35.889870,60.331936 35.989468,59.989407 
	C35.989468,59.989407 35.992172,60.040485 36.592838,60.017933 
	C36.741894,59.676449 36.890945,59.334961 36.990173,58.990124 
	C36.990173,58.990124 36.993446,59.039959 37.596600,59.023411 
	C37.744205,58.680580 37.891811,58.337749 37.990959,57.990921 
	C37.990959,57.990921 37.994881,58.039387 38.599968,58.028316 
	C38.746258,57.684345 38.892548,57.340374 38.991760,56.991734 
	C38.991760,56.991734 38.996346,57.038822 39.602535,57.031643 
M161.015961,33.030506 
	C161.015961,33.030506 161.045288,33.094933 160.451767,32.468452 
	C159.848801,30.210596 159.245834,27.952740 158.642883,25.694874 
	C156.093964,26.519978 153.312622,26.953770 151.066223,28.288162 
	C149.102692,29.454523 147.741119,31.634220 145.382523,34.144264 
	C145.280426,32.160069 145.262833,31.400774 145.198227,30.645500 
	C145.046844,28.876024 144.872955,27.108473 144.708176,25.340147 
	C142.850983,26.661356 140.105515,27.599068 139.332932,29.388546 
	C137.982422,32.516663 137.956985,36.195019 137.151169,39.589355 
	C136.747604,41.289265 136.180023,43.167149 135.069305,44.415115 
	C134.144577,45.454094 132.318497,45.690842 130.891647,46.282917 
	C130.471970,44.931240 129.570480,43.522942 129.721451,42.238327 
	C130.206573,38.110321 131.295837,34.048393 131.686874,29.916945 
	C131.822952,28.479420 130.603180,26.913561 130.002625,25.406315 
	C128.456039,26.102436 125.695152,26.613012 125.555923,27.524183 
	C124.490845,34.494408 123.285904,41.559826 123.470825,48.560081 
	C123.579041,52.657032 128.284500,54.321514 132.474960,52.778107 
	C134.012863,52.211674 135.423691,51.300217 136.852158,50.566845 
	C141.935471,54.730019 143.688568,54.227932 145.445984,48.220757 
	C145.960312,46.462681 146.342453,44.636230 147.100082,42.985657 
	C148.395676,40.163048 149.939713,37.454487 151.379410,34.698032 
	C151.876465,34.898865 152.373535,35.099697 152.870590,35.300529 
	C152.733932,36.877995 152.555939,38.453194 152.469528,40.033409 
	C152.306259,43.019421 151.779633,46.072998 152.230103,48.970047 
	C152.473145,50.533131 154.425247,51.830467 155.606277,53.247707 
	C156.969467,52.048252 158.701019,51.071705 159.597672,49.589947 
	C160.599411,47.934528 160.636536,45.725517 161.463058,43.927307 
	C162.919632,40.758286 164.656784,37.718212 166.276474,34.624153 
	C166.831940,34.846310 167.387405,35.068462 167.942856,35.290619 
	C167.461609,38.462391 166.904480,41.624878 166.514725,44.807854 
	C165.678314,51.638618 169.838303,55.016315 176.289124,52.623646 
	C178.426682,51.830807 180.339905,50.433113 181.352188,49.870102 
	C185.598816,51.190010 188.948959,52.783798 192.434967,53.178947 
	C197.093796,53.707054 201.872864,53.522167 206.570129,53.201607 
	C208.597061,53.063274 211.313004,52.392635 212.385757,50.964584 
	C215.201096,47.216732 217.960419,48.544926 221.088852,49.971516 
	C228.814041,53.494228 236.573730,55.490253 243.724457,50.227051 
	C246.338318,51.346973 248.689285,53.279701 250.653748,52.944859 
	C252.767639,52.584549 254.519073,50.097824 256.812836,48.225220 
	C259.384857,53.971169 263.793396,54.647274 269.214325,51.503151 
	C269.689728,51.227409 270.645416,51.182308 271.053040,51.478027 
	C275.944550,55.026264 280.151978,53.013103 284.042175,49.843014 
	C291.238190,54.370232 296.765411,54.440048 300.952576,49.953587 
	C303.107300,47.644871 304.970734,45.038834 302.218933,41.644592 
	C298.384186,42.951218 296.250153,50.257565 291.010132,44.972370 
	C288.485565,42.426041 289.914642,35.801231 292.572693,33.096634 
	C294.815948,33.714489 297.617065,35.118294 298.161530,34.508213 
	C299.408783,33.110569 300.204926,30.661440 300.005615,28.762997 
	C299.641541,25.295382 296.745697,24.725342 293.941284,25.585745 
	C291.623383,26.296879 289.524261,27.721130 287.328217,28.829399 
	C287.394379,28.412403 287.460571,27.995405 287.526733,27.578409 
	C284.144012,26.962748 280.683655,25.659248 277.412079,26.028448 
	C275.832184,26.206739 274.347992,29.408281 273.361725,31.496552 
	C273.014893,32.230900 274.567322,34.769310 274.768829,34.714233 
	C276.636932,34.203659 278.398010,33.303249 280.194641,32.526268 
	C280.342133,32.462475 280.522308,32.474098 280.687286,32.450680 
	C284.037354,37.993240 282.177765,45.199379 276.928009,46.284164 
	C276.767365,45.679165 276.615631,45.060009 276.438049,44.448349 
	C275.968353,42.830124 275.487457,41.215160 275.011017,39.598892 
	C273.325684,40.681084 271.616211,41.728592 269.973602,42.872162 
	C269.605804,43.128227 269.581207,43.890869 269.211304,44.127903 
	C267.920288,44.955124 266.547150,45.654198 265.205231,46.401966 
	C264.851593,45.053574 264.045624,43.640442 264.227631,42.368702 
	C264.816772,38.251888 265.956177,34.210907 266.481964,30.089481 
	C266.673035,28.591684 265.733582,26.949657 265.309967,25.373438 
	C263.653839,26.435410 261.345276,27.126568 260.484772,28.640699 
	C258.948853,31.343260 258.518158,34.650238 257.190063,37.501751 
	C256.038055,39.975174 254.283569,42.167984 252.795349,44.484810 
	C252.132050,44.204967 251.468735,43.925129 250.805435,43.645287 
	C251.556519,39.346466 252.512573,35.068726 252.958038,30.738466 
	C253.136673,29.001984 252.192596,27.149998 251.759552,25.350582 
	C249.994049,26.553061 247.498337,27.376612 246.632156,29.045773 
	C245.293289,31.625883 244.900574,34.755928 244.406815,37.703045 
	C243.457825,43.367474 241.718857,45.502586 236.025681,45.103642 
	C229.824905,44.669136 223.698471,43.173946 217.498291,42.134243 
	C218.198532,34.969433 218.549484,28.635662 219.534241,22.402014 
	C220.066299,19.034029 221.143066,15.497525 222.941238,12.647197 
	C225.300949,8.906815 229.447632,7.909456 233.575623,9.400887 
	C237.380997,10.775748 236.756348,14.175041 236.581985,17.468510 
	C236.499588,19.025206 237.957458,20.663452 238.717438,22.264755 
	C240.409607,21.272404 242.923004,20.689642 243.656448,19.219116 
	C247.501648,11.509637 241.767502,2.911993 232.658722,2.278854 
	C221.251160,1.485931 212.174881,9.662884 211.078217,21.868567 
	C210.531174,27.957018 210.218430,34.066521 209.898102,38.732903 
	C205.811508,41.228237 202.728119,43.202389 199.556503,45.022854 
	C196.139099,46.984390 192.654724,47.986908 188.848282,44.919468 
	C191.937363,43.251808 194.880219,42.077541 197.329193,40.243725 
	C200.992874,37.500351 201.964691,32.548855 200.034302,29.046064 
	C198.130020,25.590658 193.975937,24.351995 189.523209,26.032211 
	C183.525284,28.295486 180.955551,33.080807 180.180649,39.097694 
	C180.011261,40.412933 180.476807,42.118004 179.803650,42.990982 
	C178.681595,44.446110 176.876160,45.374287 175.358444,46.524345 
	C174.852280,44.983425 173.821976,43.398514 173.946869,41.910553 
	C174.224060,38.608154 175.416992,35.370808 175.577957,32.074776 
	C175.678894,30.007555 175.184647,26.806416 173.865234,26.069477 
	C172.394913,25.248249 169.382095,26.133070 167.590225,27.199018 
	C165.115295,28.671312 163.154373,31.007698 161.015961,33.030506 
M105.987099,51.427231 
	C108.002274,38.950745 110.117569,26.489071 111.967621,13.988147 
	C112.478844,10.533782 113.736206,8.995346 117.400864,9.316734 
	C121.537804,9.679542 125.728249,9.795529 129.867371,9.548615 
	C131.106979,9.474669 133.077515,7.931068 133.213974,6.868284 
	C133.356171,5.760718 131.944153,3.932071 130.747223,3.304571 
	C129.210815,2.499088 127.204651,2.284160 125.412247,2.324202 
	C116.601120,2.521038 107.766159,2.571075 98.997803,3.338139 
	C95.146400,3.675064 91.191917,5.124319 87.716316,6.909661 
	C82.948219,9.358931 81.009056,14.926458 83.081871,19.761261 
	C83.809219,21.457790 86.225739,23.581577 87.794640,23.521391 
	C90.872078,23.403332 90.798431,20.896332 89.908653,18.277020 
	C88.592285,14.401903 90.261322,11.628464 94.091492,10.625270 
	C97.194443,9.812546 100.463417,9.633690 104.342056,9.075315 
	C103.943230,11.664595 103.709587,13.260494 103.450272,14.852210 
	C101.710663,25.530367 99.818710,36.186520 98.279488,46.893414 
	C97.409645,52.944061 99.734558,54.461422 105.987099,51.427231 
M126.586075,14.060047 
	C124.688522,18.216146 125.412346,20.917215 128.940460,21.112938 
	C130.937805,21.223742 133.411896,20.167618 134.913437,18.803133 
	C135.721252,18.069056 135.251602,14.206719 134.805801,14.101712 
	C132.346573,13.522446 129.716995,13.666348 126.586075,14.060047 
z"/>
<path fill="#474F62" opacity="1.000000" stroke="none" 
	d="
M160.973312,32.973999 
	C163.154373,31.007698 165.115295,28.671312 167.590225,27.199018 
	C169.382095,26.133070 172.394913,25.248249 173.865234,26.069477 
	C175.184647,26.806416 175.678894,30.007555 175.577957,32.074776 
	C175.416992,35.370808 174.224060,38.608154 173.946869,41.910553 
	C173.821976,43.398514 174.852280,44.983425 175.358459,46.524342 
	C176.876160,45.374287 178.681595,44.446110 179.803650,42.990982 
	C180.476807,42.118004 180.011261,40.412933 180.180649,39.097694 
	C180.955551,33.080807 183.525284,28.295486 189.523209,26.032211 
	C193.975937,24.351995 198.130020,25.590658 200.034302,29.046064 
	C201.964691,32.548855 200.992874,37.500351 197.329193,40.243725 
	C194.880219,42.077541 191.937363,43.251808 188.848282,44.919468 
	C192.654724,47.986908 196.139099,46.984390 199.556503,45.022854 
	C202.728119,43.202389 205.811508,41.228237 209.898102,38.732903 
	C210.218430,34.066521 210.531174,27.957018 211.078217,21.868567 
	C212.174881,9.662884 221.251160,1.485931 232.658722,2.278854 
	C241.767502,2.911993 247.501648,11.509637 243.656448,19.219116 
	C242.923004,20.689642 240.409607,21.272404 238.717438,22.264751 
	C237.957458,20.663452 236.499588,19.025206 236.581985,17.468510 
	C236.756348,14.175041 237.380997,10.775748 233.575623,9.400887 
	C229.447632,7.909456 225.300949,8.906815 222.941238,12.647197 
	C221.143066,15.497525 220.066299,19.034029 219.534241,22.402014 
	C218.549484,28.635662 218.198532,34.969433 217.498291,42.134243 
	C223.698471,43.173946 229.824905,44.669136 236.025681,45.103642 
	C241.718857,45.502586 243.457825,43.367474 244.406815,37.703045 
	C244.900574,34.755928 245.293289,31.625883 246.632156,29.045773 
	C247.498337,27.376612 249.994049,26.553061 251.759552,25.350586 
	C252.192596,27.149998 253.136673,29.001984 252.958038,30.738466 
	C252.512573,35.068726 251.556519,39.346466 250.805435,43.645287 
	C251.468735,43.925129 252.132050,44.204967 252.795349,44.484810 
	C254.283569,42.167984 256.038055,39.975174 257.190063,37.501751 
	C258.518158,34.650238 258.948853,31.343260 260.484772,28.640699 
	C261.345276,27.126568 263.653839,26.435410 265.309967,25.373436 
	C265.733582,26.949657 266.673035,28.591684 266.481964,30.089481 
	C265.956177,34.210907 264.816772,38.251888 264.227631,42.368702 
	C264.045624,43.640442 264.851593,45.053574 265.205231,46.401970 
	C266.547150,45.654198 267.920288,44.955124 269.211304,44.127903 
	C269.581207,43.890869 269.605804,43.128227 269.973602,42.872162 
	C271.616211,41.728592 273.325684,40.681084 275.011017,39.598892 
	C275.487457,41.215160 275.968353,42.830124 276.438049,44.448349 
	C276.615631,45.060009 276.767365,45.679165 276.928009,46.284164 
	C282.177765,45.199379 284.037354,37.993240 280.687286,32.450676 
	C280.522308,32.474098 280.342133,32.462475 280.194641,32.526268 
	C278.398010,33.303249 276.636932,34.203659 274.768829,34.714233 
	C274.567322,34.769310 273.014893,32.230900 273.361725,31.496552 
	C274.347992,29.408281 275.832184,26.206739 277.412079,26.028448 
	C280.683655,25.659248 284.144012,26.962748 287.526733,27.578409 
	C287.460571,27.995405 287.394379,28.412403 287.328217,28.829399 
	C289.524261,27.721130 291.623383,26.296879 293.941284,25.585745 
	C296.745697,24.725342 299.641541,25.295382 300.005615,28.762997 
	C300.204926,30.661440 299.408783,33.110569 298.161530,34.508213 
	C297.617065,35.118294 294.815948,33.714489 292.572693,33.096634 
	C289.914642,35.801231 288.485565,42.426041 291.010132,44.972370 
	C296.250153,50.257565 298.384186,42.951218 302.218933,41.644592 
	C304.970734,45.038834 303.107300,47.644871 300.952576,49.953587 
	C296.765411,54.440048 291.238190,54.370232 284.042175,49.843014 
	C280.151978,53.013103 275.944550,55.026264 271.053040,51.478027 
	C270.645416,51.182308 269.689728,51.227409 269.214325,51.503151 
	C263.793396,54.647274 259.384857,53.971169 256.812836,48.225220 
	C254.519073,50.097824 252.767639,52.584549 250.653748,52.944859 
	C248.689285,53.279701 246.338318,51.346973 243.724457,50.227051 
	C236.573730,55.490253 228.814041,53.494228 221.088852,49.971516 
	C217.960419,48.544926 215.201096,47.216732 212.385757,50.964584 
	C211.313004,52.392635 208.597061,53.063274 206.570129,53.201607 
	C201.872864,53.522167 197.093796,53.707054 192.434967,53.178947 
	C188.948959,52.783798 185.598816,51.190010 181.352188,49.870102 
	C180.339905,50.433113 178.426682,51.830807 176.289124,52.623646 
	C169.838303,55.016315 165.678314,51.638618 166.514725,44.807854 
	C166.904480,41.624878 167.461609,38.462391 167.942856,35.290619 
	C167.387405,35.068462 166.831940,34.846310 166.276474,34.624153 
	C164.656784,37.718212 162.919632,40.758286 161.463058,43.927307 
	C160.636536,45.725517 160.599411,47.934528 159.597672,49.589947 
	C158.701019,51.071705 156.969467,52.048252 155.606277,53.247704 
	C154.425247,51.830467 152.473145,50.533131 152.230103,48.970047 
	C151.779633,46.072998 152.306259,43.019421 152.469528,40.033409 
	C152.555939,38.453194 152.733932,36.877995 152.870590,35.300529 
	C152.373535,35.099697 151.876465,34.898865 151.379410,34.698032 
	C149.939713,37.454487 148.395676,40.163048 147.100082,42.985657 
	C146.342453,44.636230 145.960312,46.462681 145.445984,48.220757 
	C143.688568,54.227932 141.935471,54.730019 136.852158,50.566845 
	C135.423691,51.300217 134.012863,52.211674 132.474960,52.778107 
	C128.284500,54.321514 123.579041,52.657032 123.470825,48.560081 
	C123.285904,41.559826 124.490845,34.494408 125.555923,27.524183 
	C125.695152,26.613012 128.456039,26.102436 130.002625,25.406315 
	C130.603180,26.913561 131.822952,28.479420 131.686874,29.916945 
	C131.295837,34.048393 130.206573,38.110321 129.721451,42.238327 
	C129.570480,43.522942 130.471970,44.931240 130.891647,46.282917 
	C132.318497,45.690842 134.144577,45.454094 135.069305,44.415115 
	C136.180023,43.167149 136.747604,41.289265 137.151169,39.589355 
	C137.956985,36.195019 137.982422,32.516663 139.332932,29.388546 
	C140.105515,27.599068 142.850983,26.661356 144.708191,25.340145 
	C144.872955,27.108473 145.046844,28.876024 145.198227,30.645500 
	C145.262833,31.400774 145.280426,32.160069 145.382523,34.144264 
	C147.741119,31.634220 149.102692,29.454523 151.066223,28.288162 
	C153.312622,26.953770 156.093964,26.519978 158.642883,25.694878 
	C159.245834,27.952740 159.848801,30.210596 160.545868,32.541092 
	C160.336426,33.019241 159.990540,33.403534 159.767151,33.849224 
	C159.725510,33.932304 160.175705,34.261909 160.398895,34.477737 
	C160.590378,33.976494 160.781845,33.475246 160.973312,32.973999 
M190.261856,32.490704 
	C189.071594,34.699017 187.881332,36.907333 186.691071,39.115646 
	C187.203781,39.505379 187.716492,39.895111 188.229187,40.284843 
	C189.998093,39.236233 191.958618,38.400837 193.458572,37.052940 
	C194.260437,36.332371 194.912994,34.317833 194.472549,33.625423 
	C193.910156,32.741329 192.175949,32.602634 190.261856,32.490704 
z"/>
<path fill="#EEFAFE" opacity="1.000000" stroke="none" 
	d="
M74.309013,27.987835 
	C76.943321,30.108238 79.577629,32.228638 82.939644,34.934784 
	C72.785355,44.674706 63.264404,53.807125 53.176155,62.604450 
	C51.222786,62.179790 49.836723,62.090225 48.450657,62.000664 
	C47.093792,60.660858 45.736927,59.321053 44.395927,57.354446 
	C43.928246,56.480724 43.444702,56.233803 42.961159,55.986881 
	C42.961159,55.986881 43.008812,55.990330 43.185745,55.640244 
	C41.727165,53.221840 40.499668,52.990273 40.000423,56.037052 
	C40.000423,56.037052 39.993607,55.992386 39.653786,55.884415 
	C39.208092,56.197235 39.102219,56.618031 38.996346,57.038822 
	C38.996346,57.038822 38.991760,56.991734 38.654495,56.886574 
	C38.209778,57.200741 38.102329,57.620064 37.994881,58.039387 
	C37.994881,58.039387 37.990959,57.990921 37.655769,57.890366 
	C37.211536,58.206524 37.102493,58.623241 36.993446,59.039959 
	C36.993446,59.039959 36.990173,58.990124 36.656677,58.893204 
	C36.212845,59.211018 36.102509,59.625751 35.992172,60.040485 
	C35.992172,60.040485 35.989468,59.989407 35.657318,59.895313 
	C35.213730,60.214504 35.102295,60.627792 34.990860,61.041077 
	C34.990860,61.041077 34.988712,60.988636 34.657913,60.897232 
	C34.214710,61.217735 34.102310,61.629635 33.989910,62.041538 
	C33.989910,62.041538 33.990143,61.990376 33.665623,61.816734 
	C32.227169,62.095566 31.113232,62.548038 29.999292,63.000511 
	C28.693396,61.957783 27.387499,60.915054 26.305969,59.329605 
	C26.326174,57.949162 26.397474,56.834988 25.876171,56.315559 
	C19.016813,49.480915 12.073906,42.730125 5.138099,35.619072 
	C14.510155,26.659586 23.896046,18.039356 33.281937,9.419127 
	C34.472935,9.833764 36.339264,11.726991 38.018383,13.773801 
	C40.304642,16.560696 42.374466,16.880348 44.912838,13.971635 
	C46.739704,11.878233 48.991863,10.155975 51.608208,7.761173 
	C57.935555,14.214850 63.917671,20.442921 70.087791,26.478809 
	C71.058243,27.428150 72.880569,27.506668 74.309013,27.987835 
M40.459972,22.801365 
	C37.988018,19.714312 35.516068,16.627258 32.764156,13.190582 
	C25.131475,20.826803 18.882029,26.986448 12.801975,33.308987 
	C12.210203,33.924362 12.150090,36.037922 12.711617,36.623989 
	C18.864727,43.046047 25.190554,49.302620 31.623806,55.759033 
	C35.272861,52.325508 38.350872,49.429298 42.475918,45.547901 
	C45.020824,48.620842 47.150047,51.383194 49.521099,53.919476 
	C50.109154,54.548504 51.480675,54.445110 52.492062,54.678391 
	C52.660946,53.756073 52.829826,52.833759 53.076118,51.233891 
	C58.050537,45.813187 63.024952,40.392479 68.342072,34.598328 
	C62.314983,28.863079 56.579399,23.405216 50.881596,17.291666 
	C49.924786,17.318678 48.695976,16.973389 48.059277,17.438555 
	C45.589645,19.242832 43.308380,21.304934 40.459972,22.801365 
z"/>
<path fill="#464F62" opacity="1.000000" stroke="none" 
	d="
M105.712326,51.741829 
	C99.734558,54.461422 97.409645,52.944061 98.279488,46.893414 
	C99.818710,36.186520 101.710663,25.530367 103.450272,14.852210 
	C103.709587,13.260494 103.943230,11.664595 104.342056,9.075315 
	C100.463417,9.633690 97.194443,9.812546 94.091492,10.625270 
	C90.261322,11.628464 88.592285,14.401903 89.908653,18.277020 
	C90.798431,20.896332 90.872078,23.403332 87.794640,23.521391 
	C86.225739,23.581577 83.809219,21.457790 83.081871,19.761261 
	C81.009056,14.926458 82.948219,9.358931 87.716316,6.909661 
	C91.191917,5.124319 95.146400,3.675064 98.997803,3.338139 
	C107.766159,2.571075 116.601120,2.521038 125.412247,2.324202 
	C127.204651,2.284160 129.210815,2.499088 130.747223,3.304571 
	C131.944153,3.932071 133.356171,5.760718 133.213974,6.868284 
	C133.077515,7.931068 131.106979,9.474669 129.867371,9.548615 
	C125.728249,9.795529 121.537804,9.679542 117.400864,9.316734 
	C113.736206,8.995346 112.478844,10.533782 111.967621,13.988147 
	C110.117569,26.489071 108.002274,38.950745 105.712326,51.741829 
z"/>
<path fill="#41C3F4" opacity="1.000000" stroke="none" 
	d="
M74.117905,27.697557 
	C72.880569,27.506668 71.058243,27.428150 70.087791,26.478809 
	C63.917671,20.442921 57.935555,14.214850 51.608208,7.761173 
	C48.991863,10.155975 46.739704,11.878233 44.912838,13.971635 
	C42.374466,16.880348 40.304642,16.560696 38.018383,13.773801 
	C36.339264,11.726991 34.472935,9.833764 33.281937,9.419127 
	C23.896046,18.039356 14.510155,26.659586 4.700784,35.685368 
	C3.988374,36.149063 3.699442,36.207207 3.410511,36.265347 
	C3.241185,35.314217 2.579243,33.903179 2.974831,33.479450 
	C12.046332,23.762751 21.233091,14.153653 30.807972,4.094168 
	C34.960281,8.027638 38.031612,10.937105 41.481819,14.205478 
	C44.632938,11.231471 47.710907,8.326504 51.327579,4.913113 
	C58.936539,12.486703 66.431664,19.946991 74.117905,27.697557 
z"/>
<path fill="#4F5769" opacity="1.000000" stroke="none" 
	d="
M126.865952,13.811165 
	C129.716995,13.666348 132.346573,13.522446 134.805801,14.101712 
	C135.251602,14.206719 135.721252,18.069056 134.913437,18.803133 
	C133.411896,20.167618 130.937805,21.223742 128.940460,21.112938 
	C125.412346,20.917215 124.688522,18.216146 126.865952,13.811165 
z"/>
<path fill="#4DC6F4" opacity="1.000000" stroke="none" 
	d="
M3.578883,36.570030 
	C3.699442,36.207207 3.988374,36.149063 4.714620,36.024620 
	C12.073906,42.730125 19.016813,49.480915 25.876171,56.315559 
	C26.397474,56.834988 26.326174,57.949162 26.259647,59.000801 
	C18.575056,51.768055 11.161155,44.321384 3.578883,36.570030 
z"/>
<path fill="#37C0F3" opacity="1.000000" stroke="none" 
	d="
M30.272171,63.114601 
	C31.113232,62.548038 32.227169,62.095566 33.690956,61.820293 
	C33.272549,63.535095 32.818703,65.965416 30.272171,63.114601 
z"/>
<path fill="#37C0F3" opacity="1.000000" stroke="none" 
	d="
M40.375195,56.085171 
	C40.499668,52.990273 41.727165,53.221840 43.180183,55.663475 
	C42.248447,56.068958 41.499207,56.101124 40.375195,56.085171 
z"/>
<path fill="#37C0F3" opacity="1.000000" stroke="none" 
	d="
M48.660343,62.300758 
	C49.836723,62.090225 51.222786,62.179790 52.835083,62.642174 
	C51.664223,62.876949 50.267124,62.738903 48.660343,62.300758 
z"/>
<path fill="#37C0F3" opacity="1.000000" stroke="none" 
	d="
M34.286827,62.022888 
	C34.102310,61.629635 34.214710,61.217735 34.684128,60.898346 
	C34.888680,61.328655 34.736214,61.666447 34.286827,62.022888 
z"/>
<path fill="#37C0F3" opacity="1.000000" stroke="none" 
	d="
M35.289700,61.026241 
	C35.102295,60.627792 35.213730,60.214504 35.682854,59.896713 
	C35.889870,60.331936 35.739204,60.671673 35.289700,61.026241 
z"/>
<path fill="#37C0F3" opacity="1.000000" stroke="none" 
	d="
M36.292503,60.029209 
	C36.102509,59.625751 36.212845,59.211018 36.681595,58.894882 
	C36.890945,59.334961 36.741894,59.676449 36.292503,60.029209 
z"/>
<path fill="#37C0F3" opacity="1.000000" stroke="none" 
	d="
M37.295021,59.031685 
	C37.102493,58.623241 37.211536,58.206524 37.680000,57.892361 
	C37.891811,58.337749 37.744205,58.680580 37.295021,59.031685 
z"/>
<path fill="#37C0F3" opacity="1.000000" stroke="none" 
	d="
M38.297424,58.033852 
	C38.102329,57.620064 38.209778,57.200741 38.678032,56.888908 
	C38.892548,57.340374 38.746258,57.684345 38.297424,58.033852 
z"/>
<path fill="#37C0F3" opacity="1.000000" stroke="none" 
	d="
M42.988983,56.322655 
	C43.444702,56.233803 43.928246,56.480724 44.208481,57.139282 
	C43.675716,57.253418 43.346260,56.955921 42.988983,56.322655 
z"/>
<path fill="#37C0F3" opacity="1.000000" stroke="none" 
	d="
M39.299438,57.035233 
	C39.102219,56.618031 39.208092,56.197235 39.676250,55.886810 
	C39.893204,56.341999 39.747868,56.686821 39.299438,57.035233 
z"/>
<path fill="#DFE0E4" opacity="1.000000" stroke="none" 
	d="
M190.604340,32.316689 
	C192.175949,32.602634 193.910156,32.741329 194.472549,33.625423 
	C194.912994,34.317833 194.260437,36.332371 193.458572,37.052940 
	C191.958618,38.400837 189.998093,39.236233 188.229187,40.284843 
	C187.716492,39.895111 187.203781,39.505379 186.691071,39.115646 
	C187.881332,36.907333 189.071594,34.699017 190.604340,32.316689 
z"/>
<path fill="#FAFBFC" opacity="1.000000" stroke="none" 
	d="
M160.994629,33.002251 
	C160.781845,33.475246 160.590378,33.976494 160.398895,34.477737 
	C160.175705,34.261909 159.725510,33.932304 159.767151,33.849224 
	C159.990540,33.403534 160.336426,33.019241 160.842636,32.854332 
	C161.045288,33.094933 161.015961,33.030506 160.994629,33.002251 
z"/>
<path fill="#F5FCFE" opacity="1.000000" stroke="none" 
	d="
M50.843811,17.947350 
	C56.579399,23.405216 62.314983,28.863079 68.342072,34.598328 
	C63.024952,40.392479 58.050537,45.813187 52.666710,51.668522 
	C49.202946,49.906151 46.148586,47.709145 43.022457,45.460518 
	C46.275856,41.474365 48.839512,38.333305 51.425312,34.805038 
	C48.686699,31.244387 45.925949,28.070944 43.416847,24.706898 
	C46.060265,22.326647 48.452038,20.136997 50.843811,17.947350 
z"/>
<path fill="#43C3F4" opacity="1.000000" stroke="none" 
	d="
M51.403172,35.192245 
	C48.839512,38.333305 46.275856,41.474365 43.022457,45.460518 
	C46.148586,47.709145 49.202946,49.906151 52.628006,52.007298 
	C52.829826,52.833759 52.660946,53.756073 52.492062,54.678391 
	C51.480675,54.445110 50.109154,54.548504 49.521099,53.919476 
	C47.150047,51.383194 45.020824,48.620842 42.475918,45.547901 
	C38.350872,49.429298 35.272861,52.325508 31.623806,55.759033 
	C25.190554,49.302620 18.864727,43.046047 12.711617,36.623989 
	C12.150090,36.037922 12.210203,33.924362 12.801975,33.308987 
	C18.882029,26.986448 25.131475,20.826803 32.764156,13.190582 
	C35.516068,16.627258 37.988018,19.714312 40.747150,23.321800 
	C41.387337,24.267612 41.740349,24.692991 42.064663,25.433704 
	C42.015144,26.171646 41.994324,26.594254 41.646919,27.041218 
	C40.480839,27.299553 39.641342,27.533529 38.786201,27.373920 
	C39.693508,21.348484 34.076012,20.730959 32.344116,17.614504 
	C26.209415,23.867456 20.456804,29.730953 15.579527,34.702248 
	C20.929277,40.197891 26.649670,46.074284 31.750191,51.313904 
	C34.265705,49.445488 37.148609,47.304195 41.028900,44.422089 
	C37.647545,41.511982 35.105434,39.382771 32.630989,37.177624 
	C30.287859,35.089504 30.717323,33.600548 33.848213,33.167725 
	C35.302216,34.013687 36.632275,34.494019 38.112106,35.266365 
	C39.184792,36.023258 40.107708,36.488140 41.166691,37.211143 
	C41.840935,37.637005 42.379120,37.804745 43.091763,38.182182 
	C44.539497,37.249146 45.812771,36.106419 47.514133,34.980576 
	C49.095871,35.062389 50.249523,35.127319 51.403172,35.192245 
z"/>
<path fill="#5BCBF5" opacity="1.000000" stroke="none" 
	d="
M42.093361,25.118370 
	C41.740349,24.692991 41.387337,24.267612 40.995659,23.556641 
	C43.308380,21.304934 45.589645,19.242832 48.059277,17.438555 
	C48.695976,16.973389 49.924786,17.318678 50.862701,17.619507 
	C48.452038,20.136997 46.060265,22.326647 43.147667,24.758806 
	C42.449013,25.040335 42.271187,25.079351 42.093361,25.118370 
z"/>
<path fill="#24BAF2" opacity="1.000000" stroke="none" 
	d="
M42.064663,25.433704 
	C42.271187,25.079351 42.449013,25.040335 42.896019,24.949409 
	C45.925949,28.070944 48.686699,31.244387 51.425312,34.805038 
	C50.249523,35.127319 49.095871,35.062389 47.362457,34.694626 
	C45.532417,33.183048 44.282143,31.974306 42.876091,30.471802 
	C42.471382,29.124311 42.222439,28.070587 41.973499,27.016861 
	C41.994324,26.594254 42.015144,26.171646 42.064663,25.433704 
z"/>
<path fill="#F6FCFE" opacity="1.000000" stroke="none" 
	d="
M33.724266,32.802097 
	C30.717323,33.600548 30.287859,35.089504 32.630989,37.177624 
	C35.105434,39.382771 37.647545,41.511982 41.028900,44.422089 
	C37.148609,47.304195 34.265705,49.445488 31.750191,51.313904 
	C26.649670,46.074284 20.929277,40.197891 15.579527,34.702248 
	C20.456804,29.730953 26.209415,23.867456 32.344116,17.614504 
	C34.076012,20.730959 39.693508,21.348484 38.799732,27.405313 
	C38.828903,27.830294 38.892826,27.860115 38.565098,27.818026 
	C38.113213,28.150715 37.989056,28.525494 37.924358,28.926577 
	C37.983818,28.952881 37.892853,28.859957 37.565254,28.818350 
	C37.113403,29.151276 36.989147,29.525810 36.924362,29.926384 
	C36.983826,29.952421 36.892815,29.859827 36.565247,29.818417 
	C36.113453,30.151485 35.989220,30.525963 35.924500,30.926189 
	C35.984016,30.951939 35.892765,30.859783 35.565197,30.818417 
	C35.113483,31.151550 34.989338,31.526054 34.924812,31.925915 
	C34.984436,31.951273 34.892677,31.859777 34.565094,31.818369 
	C34.113483,32.151524 33.989452,32.526089 33.841675,32.859489 
	C33.817924,32.818321 33.724266,32.802097 33.724266,32.802097 
z"/>
<path fill="#55C9F5" opacity="1.000000" stroke="none" 
	d="
M41.646919,27.041218 
	C42.222439,28.070587 42.471382,29.124311 42.845039,30.793364 
	C42.959446,31.622454 42.949139,31.836216 42.671684,32.051819 
	C41.978710,32.496925 41.552887,32.940189 40.908230,33.579361 
	C40.511032,33.856068 40.332672,33.936871 39.836082,34.024330 
	C38.999348,34.345440 38.480843,34.659897 37.962337,34.974350 
	C36.632275,34.494019 35.302216,34.013687 33.848213,33.167725 
	C33.724266,32.802097 33.817924,32.818321 34.094486,32.780422 
	C34.544922,32.448273 34.718800,32.154026 34.892677,31.859777 
	C34.892677,31.859777 34.984436,31.951273 35.177662,31.846886 
	C35.544846,31.448261 35.718807,31.154022 35.892765,30.859783 
	C35.892765,30.859783 35.984016,30.951939 36.177395,30.847233 
	C36.544788,30.448294 36.718803,30.154060 36.892815,29.859827 
	C36.892815,29.859827 36.983826,29.952421 37.177277,29.847500 
	C37.544769,29.448372 37.718811,29.154165 37.892853,28.859957 
	C37.892853,28.859957 37.983818,28.952881 38.177288,28.847775 
	C38.544781,28.448483 38.718803,28.154299 38.892826,27.860115 
	C38.892826,27.860115 38.828903,27.830294 38.815372,27.798901 
	C39.641342,27.533529 40.480839,27.299553 41.646919,27.041218 
z"/>
<path fill="#7BD5F7" opacity="1.000000" stroke="none" 
	d="
M42.938835,32.049976 
	C42.949139,31.836216 42.959446,31.622454 43.000809,31.087128 
	C44.282143,31.974306 45.532417,33.183048 46.934372,34.677742 
	C45.812771,36.106419 44.539497,37.249146 43.248032,37.932365 
	C43.473026,36.948387 43.716217,36.423923 43.978153,35.923332 
	C43.996899,35.947197 43.941185,35.969215 44.207943,35.860847 
	C44.296738,35.178471 44.118778,34.604458 43.971241,34.018757 
	C44.001667,34.007069 43.963432,34.059891 43.902351,33.813942 
	C43.592152,33.348835 43.343033,33.129681 43.067825,32.693108 
	C43.041740,32.475685 42.938835,32.049976 42.938835,32.049976 
z"/>
<path fill="#32BEF3" opacity="1.000000" stroke="none" 
	d="
M38.112106,35.266361 
	C38.480843,34.659897 38.999348,34.345440 39.772934,34.332714 
	C40.393978,35.358276 40.759941,36.082111 41.102013,36.842674 
	C41.078129,36.879398 41.030628,36.953022 41.030628,36.953022 
	C40.107708,36.488140 39.184792,36.023258 38.112106,35.266361 
z"/>
<path fill="#32BEF3" opacity="1.000000" stroke="none" 
	d="
M43.959412,35.899464 
	C43.716217,36.423923 43.473026,36.948387 43.073570,37.722668 
	C42.379120,37.804745 41.840935,37.637005 41.166691,37.211143 
	C41.030628,36.953022 41.078129,36.879398 41.395439,36.768021 
	C42.461636,36.404247 43.210526,36.151855 43.959412,35.899464 
z"/>
<path fill="#43C3F4" opacity="1.000000" stroke="none" 
	d="
M38.565098,27.818026 
	C38.718803,28.154299 38.544781,28.448483 38.117828,28.821470 
	C37.989056,28.525494 38.113213,28.150715 38.565098,27.818026 
z"/>
<path fill="#43C3F4" opacity="1.000000" stroke="none" 
	d="
M37.565254,28.818350 
	C37.718811,29.154165 37.544769,29.448372 37.117813,29.821461 
	C36.989147,29.525810 37.113403,29.151276 37.565254,28.818350 
z"/>
<path fill="#43C3F4" opacity="1.000000" stroke="none" 
	d="
M36.565247,29.818417 
	C36.718803,30.154060 36.544788,30.448294 36.117882,30.821484 
	C35.989220,30.525963 36.113453,30.151485 36.565247,29.818417 
z"/>
<path fill="#43C3F4" opacity="1.000000" stroke="none" 
	d="
M35.565197,30.818417 
	C35.718807,31.154022 35.544846,31.448261 35.118042,31.821529 
	C34.989338,31.526054 35.113483,31.151550 35.565197,30.818417 
z"/>
<path fill="#43C3F4" opacity="1.000000" stroke="none" 
	d="
M34.565094,31.818369 
	C34.718800,32.154026 34.544922,32.448273 34.118233,32.821587 
	C33.989452,32.526089 34.113483,32.151524 34.565094,31.818369 
z"/>
<path fill="#D2F1FC" opacity="1.000000" stroke="none" 
	d="
M43.978157,35.923332 
	C43.210526,36.151855 42.461636,36.404247 41.419327,36.731293 
	C40.759941,36.082111 40.393978,35.358276 40.091164,34.326057 
	C40.332672,33.936871 40.511032,33.856068 41.225655,33.678009 
	C42.177078,33.734112 42.592247,33.887466 43.244019,34.165901 
	C43.641560,34.213955 43.802494,34.136921 43.963432,34.059891 
	C43.963432,34.059891 44.001667,34.007069 43.814293,34.327961 
	C43.731674,35.088974 43.836430,35.529095 43.941185,35.969215 
	C43.941185,35.969215 43.996899,35.947197 43.978157,35.923332 
z"/>
<path fill="#32BEF3" opacity="1.000000" stroke="none" 
	d="
M43.007412,34.040821 
	C42.592247,33.887466 42.177078,33.734112 41.444489,33.482101 
	C41.552887,32.940189 41.978710,32.496925 42.671684,32.051819 
	C42.938835,32.049976 43.041740,32.475685 43.035877,32.975334 
	C43.022476,33.663597 43.014942,33.852211 43.007412,34.040821 
z"/>
<path fill="#4AC6F4" opacity="1.000000" stroke="none" 
	d="
M44.207943,35.860847 
	C43.836430,35.529095 43.731674,35.088974 43.783867,34.339649 
	C44.118778,34.604458 44.296738,35.178471 44.207943,35.860847 
z"/>
<path fill="#4AC6F4" opacity="1.000000" stroke="none" 
	d="
M43.244019,34.165901 
	C43.014942,33.852211 43.022476,33.663597 43.061962,33.192757 
	C43.343033,33.129681 43.592152,33.348835 43.902351,33.813942 
	C43.802494,34.136921 43.641560,34.213955 43.244019,34.165901 
z"/>
</svg>