<svg version="1.1" id="Layer_1" xmlns="http://www.w3.org/2000/svg" xmlns:xlink="http://www.w3.org/1999/xlink" x="0px" y="0px"
	 width="100%" viewBox="0 0 63 53" enable-background="new 0 0 63 53" xml:space="preserve">
<path fill="#020202" opacity="1.000000" stroke="none" 
	d="
M64.000000,29.000000 
	C64.000000,37.265217 64.000000,45.530430 64.000000,54.000000 
	C54.646763,54.000000 45.292038,54.000000 35.571808,53.666389 
	C36.464981,50.208740 40.902626,48.034508 38.070869,43.592358 
	C38.055267,43.491726 38.027462,43.289970 38.392807,43.257454 
	C39.489613,43.230682 40.221073,43.236427 41.110909,43.458382 
	C42.335415,43.609329 43.401550,43.544060 44.467686,43.478794 
	C44.350918,42.962021 44.234154,42.445248 44.117386,41.928474 
	C43.140629,42.219349 42.163876,42.510223 41.233444,42.468002 
	C42.872715,39.177547 44.465652,36.220181 46.280861,33.009720 
	C47.132313,31.824427 47.761490,30.892235 48.606606,29.740402 
	C48.650063,27.689003 48.477581,25.857246 48.108749,23.767502 
	C47.281616,22.655199 46.650837,21.800888 45.900070,20.673141 
	C45.210682,19.855015 44.641289,19.310322 44.044609,18.612843 
	C44.017323,18.460054 43.957340,18.155495 43.941532,17.728130 
	C44.008827,15.904038 44.091930,14.507312 44.471588,13.229069 
	C49.508938,17.251038 54.249733,21.154522 58.990280,25.425568 
	C58.814835,29.744743 61.156288,29.764702 64.000000,29.000000 
M47.966908,38.021122 
	C48.558331,38.372440 49.149750,38.723755 49.741173,39.075073 
	C49.919285,38.520962 50.097397,37.966854 50.275509,37.412743 
	C49.591988,37.477345 48.908463,37.541943 47.966908,38.021122 
M55.854523,33.834843 
	C55.917316,33.287830 55.980106,32.740822 56.042900,32.193810 
	C55.614464,32.302181 55.186028,32.410553 54.757591,32.518925 
	C54.987827,32.995304 55.218063,33.471687 55.854523,33.834843 
z"/>
<path fill="#020202" opacity="1.000000" stroke="none" 
	d="
M31.000000,54.000000 
	C21.078798,54.000000 11.157597,54.000000 1.000000,54.000000 
	C1.000000,45.647259 1.000000,37.292297 1.316018,28.468918 
	C2.261572,28.002098 2.891108,28.003689 3.700263,28.268047 
	C4.368358,28.936878 4.856835,29.342939 5.557781,29.976368 
	C6.418579,30.325983 7.066907,30.448233 7.715235,30.570480 
	C7.188918,30.000912 6.662602,29.431341 6.405455,28.540617 
	C10.361480,28.236908 14.048336,28.254351 17.707157,28.234461 
	C17.679123,28.197128 17.602158,28.200911 17.677185,28.570480 
	C18.508551,30.400797 19.264891,31.861544 20.108738,33.552402 
	C20.471327,34.189236 20.746407,34.595959 21.055470,35.346397 
	C22.595560,38.057774 24.101669,40.425442 25.370686,42.947216 
	C25.005962,44.070118 24.878336,45.038906 24.894081,46.302956 
	C26.009109,47.474072 26.980766,48.349926 28.121296,49.493881 
	C29.193447,51.174656 30.096724,52.587326 31.000000,54.000000 
M18.118031,40.434219 
	C18.081882,39.729683 18.045732,39.025146 18.009584,38.320610 
	C17.581274,38.384804 17.152966,38.448997 16.724655,38.513187 
	C17.048622,39.167599 17.372591,39.822014 18.118031,40.434219 
M11.155704,33.719582 
	C10.956546,33.400238 10.757388,33.080891 10.558231,32.761547 
	C10.358618,32.948421 10.159005,33.135292 9.959390,33.322163 
	C10.278106,33.528728 10.596822,33.735291 11.155704,33.719582 
z"/>
<path fill="#020202" opacity="1.000000" stroke="none" 
	d="
M1.000000,26.000000 
	C1.000000,17.734785 1.000000,9.469572 1.000000,1.000000 
	C10.353238,1.000000 19.707960,1.000000 29.526463,1.330670 
	C29.976000,2.322490 29.961760,2.983639 29.734528,3.897727 
	C28.337425,5.097747 27.153316,6.044828 25.687077,7.092902 
	C24.623716,7.785223 23.842485,8.376551 23.039364,8.995873 
	C23.017473,9.023868 22.975866,9.081492 22.873962,9.262938 
	C22.873058,9.961764 22.974058,10.479144 23.310627,11.120800 
	C24.017471,11.493128 24.488749,11.741179 24.873585,12.320894 
	C22.651775,16.433392 20.516407,20.214228 18.205753,24.301723 
	C17.880161,25.054266 17.729855,25.500145 17.555290,25.920761 
	C17.531033,25.895500 17.462244,25.882288 16.991497,25.895927 
	C14.196449,25.945906 11.837941,26.215612 9.567749,25.882835 
	C8.843916,25.776730 8.354564,24.071016 8.116175,23.032383 
	C9.894817,22.026955 11.315207,21.086372 12.735596,20.145792 
	C12.205728,19.593119 11.675860,19.040443 11.145993,18.487770 
	C9.792302,20.060032 8.438611,21.632292 6.872507,23.454800 
	C5.621142,24.468267 4.582192,25.231489 3.226229,25.995560 
	C2.272811,25.997604 1.636405,25.998802 1.000000,26.000000 
M16.592772,15.096591 
	C17.461926,14.880718 18.331079,14.664845 19.200232,14.448973 
	C19.003813,13.912502 18.807392,13.376032 18.610971,12.839562 
	C17.953064,13.426976 17.295155,14.014390 16.592772,15.096591 
z"/>
<path fill="#020202" opacity="1.000000" stroke="none" 
	d="
M36.000000,1.000000 
	C45.254066,1.000000 54.508137,1.000000 64.000000,1.000000 
	C64.000000,8.685909 64.000000,16.374264 63.576126,24.528660 
	C62.022217,24.967672 60.892185,24.940639 59.786018,24.576057 
	C54.540100,20.150658 49.270309,16.062809 43.944954,11.617483 
	C41.259590,7.840005 38.629795,4.420002 36.000000,1.000000 
z"/>
<path fill="#111315" opacity="1.000000" stroke="none" 
	d="
M31.399996,54.000000 
	C30.096724,52.587326 29.193447,51.174656 28.524172,49.461617 
	C29.215878,48.758045 30.028795,48.391026 30.074158,47.945805 
	C30.389820,44.847542 24.318680,36.285198 21.021488,35.002682 
	C20.746407,34.595959 20.471327,34.189236 20.075937,33.465012 
	C19.955629,33.147514 19.978376,32.962097 20.276875,32.828842 
	C21.613680,32.466805 22.903824,31.730415 23.645945,32.098610 
	C26.589500,33.559021 29.361723,35.364765 32.457108,37.054153 
	C32.889481,37.079865 33.062195,37.093956 33.200024,37.537666 
	C33.165142,40.564552 33.165142,43.161819 33.165142,46.669323 
	C35.644619,45.169781 36.865547,44.431385 38.086472,43.692989 
	C40.902626,48.034508 36.464981,50.208740 35.103149,53.666389 
	C33.933331,54.000000 32.866661,54.000000 31.399996,54.000000 
M33.510616,50.966335 
	C33.510616,50.966335 33.545948,51.000370 33.510616,50.966335 
z"/>
<path fill="#0B0C0D" opacity="1.000000" stroke="none" 
	d="
M35.571537,1.000000 
	C38.629795,4.420002 41.259590,7.840005 43.919174,11.716793 
	C43.948963,12.173578 43.773056,12.279276 43.485367,12.222310 
	C42.154472,12.516365 41.111259,12.867386 39.774475,13.048662 
	C37.664722,10.921412 35.848545,8.963904 33.951305,6.744464 
	C33.863697,6.299889 33.857151,6.117248 34.111782,5.904271 
	C33.933525,5.202899 33.494091,4.531859 32.897652,3.615049 
	C31.809599,3.461114 30.878559,3.552951 29.947519,3.644787 
	C29.961760,2.983639 29.976000,2.322490 29.995121,1.330670 
	C31.714357,1.000000 33.428715,1.000000 35.571537,1.000000 
z"/>
<path fill="#0A0B0D" opacity="1.000000" stroke="none" 
	d="
M59.762150,24.913607 
	C60.892185,24.940639 62.022217,24.967672 63.576126,24.997353 
	C64.000000,26.066669 64.000000,27.133339 64.000000,28.600004 
	C61.156288,29.764702 58.814835,29.744743 59.177544,25.359253 
	C59.365055,24.925379 59.762150,24.913607 59.762150,24.913607 
z"/>
<path fill="#020203" opacity="1.000000" stroke="none" 
	d="
M1.000000,26.333328 
	C1.636405,25.998802 2.272811,25.997604 3.266340,26.330437 
	C3.589190,27.111406 3.554918,27.558342 3.520645,28.005280 
	C2.891108,28.003689 2.261572,28.002098 1.316018,28.000252 
	C1.000000,27.555552 1.000000,27.111105 1.000000,26.333328 
z"/>
<path fill="#050607" opacity="1.000000" stroke="none" 
	d="
M34.032372,7.006397 
	C35.848545,8.963904 37.664722,10.921412 39.767715,13.205118 
	C40.054531,13.531319 40.048946,13.848068 40.122849,14.191432 
	C41.450279,15.741695 42.703812,16.948595 43.957340,18.155495 
	C43.957340,18.155495 44.017323,18.460054 43.944443,18.829340 
	C43.900452,19.794437 43.929340,20.390247 43.958710,21.335442 
	C43.312374,22.013739 42.665562,22.342655 41.912674,22.534000 
	C41.525200,22.932510 41.243805,23.468588 41.270901,24.060074 
	C42.346394,24.441360 43.113392,24.767239 43.590172,25.388649 
	C36.234394,25.474573 29.168840,25.264961 22.278122,24.991749 
	C22.452959,24.928146 22.725374,24.674685 22.789055,24.692879 
	C22.852737,24.711073 22.889366,24.583776 23.141045,24.477211 
	C23.226734,23.921329 23.060741,23.472015 22.508064,22.780621 
	C24.909527,17.627928 27.697678,12.717317 30.789419,7.864291 
	C31.296663,7.952893 31.500319,7.983908 31.747564,8.452617 
	C31.198273,12.258109 30.605391,15.625910 29.670921,19.036766 
	C27.902849,19.895159 26.476362,20.710493 25.049875,21.525829 
	C25.507940,22.069777 25.966005,22.613726 26.424072,23.157675 
	C27.617895,21.768190 28.811720,20.378706 30.415709,19.009319 
	C32.037998,19.029419 33.250122,19.029419 34.032372,19.029419 
	C34.032372,14.679964 34.032372,10.843181 34.032372,7.006397 
M38.662163,20.613005 
	C37.988850,20.179562 37.315536,19.746120 36.642223,19.312679 
	C36.493919,19.753340 36.345615,20.194002 36.197311,20.634665 
	C37.029156,20.746687 37.861000,20.858711 38.662163,20.613005 
z"/>
<path fill="#070708" opacity="1.000000" stroke="none" 
	d="
M38.070869,43.592358 
	C36.865547,44.431385 35.644619,45.169781 33.165142,46.669323 
	C33.165142,43.161819 33.165142,40.564552 33.382530,37.377571 
	C33.045933,35.866909 32.491947,34.945961 31.600931,33.944588 
	C28.169249,32.259399 25.074594,30.654636 21.847965,28.924156 
	C21.502064,28.673729 21.325565,28.508932 21.636784,28.218044 
	C29.011114,28.390385 35.935158,28.648727 42.636284,29.039375 
	C42.197956,29.441229 41.982544,29.710773 41.443726,30.066187 
	C39.448082,31.314209 37.775845,32.476364 36.103607,33.638515 
	C36.452991,34.044926 36.802380,34.451332 37.151764,34.857742 
	C38.760555,33.619377 40.369343,32.381012 42.311119,31.076887 
	C43.424232,31.671978 44.204357,32.332829 44.694382,33.154896 
	C42.278679,36.640732 40.153069,39.965351 38.027462,43.289970 
	C38.027462,43.289970 38.055267,43.491726 38.070869,43.592358 
z"/>
<path fill="#59779D" opacity="1.000000" stroke="none" 
	d="
M41.767132,29.980320 
	C41.982544,29.710773 42.197956,29.441229 42.920906,28.903036 
	C43.579094,27.453966 43.729744,26.273540 43.880394,25.093117 
	C43.113392,24.767239 42.346394,24.441360 41.274105,23.734867 
	C41.318798,23.126690 41.668777,22.899132 42.018753,22.671572 
	C42.665562,22.342655 43.312374,22.013739 44.300377,21.271759 
	C45.101067,20.887989 45.560562,20.917282 46.020058,20.946575 
	C46.650837,21.800888 47.281616,22.655199 48.079178,24.035866 
	C48.294193,26.361494 48.342430,28.160770 48.390671,29.960045 
	C47.761490,30.892235 47.132313,31.824427 46.006828,32.964157 
	C45.335175,33.112354 45.159828,33.053013 44.984482,32.993675 
	C44.204357,32.332829 43.424232,31.671978 42.250801,30.787682 
	C41.827377,30.369596 41.797256,30.174959 41.767132,29.980320 
z"/>
<path fill="#4F647E" opacity="1.000000" stroke="none" 
	d="
M59.786018,24.576057 
	C59.762150,24.913607 59.365055,24.925379 59.177788,24.991693 
	C54.249733,21.154522 49.508938,17.251038 44.457630,13.199307 
	C44.147118,13.051064 44.090534,13.084781 44.041916,12.949282 
	C43.909290,12.639979 43.835876,12.461810 43.773056,12.279276 
	C43.773056,12.279276 43.948963,12.173578 43.974739,12.074268 
	C49.270309,16.062809 54.540100,20.150658 59.786018,24.576057 
z"/>
<path fill="#111315" opacity="1.000000" stroke="none" 
	d="
M44.694382,33.154896 
	C45.159828,33.053013 45.335175,33.112354 45.784554,33.217255 
	C44.465652,36.220181 42.872715,39.177547 41.172523,42.577061 
	C41.065277,43.019211 40.952538,43.242168 40.952538,43.242168 
	C40.221073,43.236427 39.489613,43.230682 38.392807,43.257454 
	C40.153069,39.965351 42.278679,36.640732 44.694382,33.154896 
z"/>
<path fill="#0A0B0D" opacity="1.000000" stroke="none" 
	d="
M48.095924,37.813831 
	C48.908463,37.541943 49.591988,37.477345 50.275509,37.412743 
	C50.097397,37.966854 49.919285,38.520962 49.741173,39.075073 
	C49.149750,38.723755 48.558331,38.372440 48.095924,37.813831 
z"/>
<path fill="#0A0B0D" opacity="1.000000" stroke="none" 
	d="
M48.606606,29.740402 
	C48.342430,28.160770 48.294193,26.361494 48.275528,24.293856 
	C48.477581,25.857246 48.650063,27.689003 48.606606,29.740402 
z"/>
<path fill="#0A0B0D" opacity="1.000000" stroke="none" 
	d="
M41.126198,42.910152 
	C42.163876,42.510223 43.140629,42.219349 44.117386,41.928474 
	C44.234154,42.445248 44.350918,42.962021 44.467686,43.478794 
	C43.401550,43.544060 42.335415,43.609329 41.110909,43.458382 
	C40.952538,43.242168 41.065277,43.019211 41.126198,42.910152 
z"/>
<path fill="#0B0C0D" opacity="1.000000" stroke="none" 
	d="
M43.941532,17.728130 
	C42.703812,16.948595 41.450279,15.741695 40.635033,14.158905 
	C42.079056,13.550270 43.084797,13.317526 44.090534,13.084781 
	C44.090534,13.084781 44.147118,13.051064 44.161079,13.080825 
	C44.091930,14.507312 44.008827,15.904038 43.941532,17.728130 
z"/>
<path fill="#0A0B0D" opacity="1.000000" stroke="none" 
	d="
M55.651413,33.891457 
	C55.218063,33.471687 54.987827,32.995304 54.757591,32.518925 
	C55.186028,32.410553 55.614464,32.302181 56.042900,32.193810 
	C55.980106,32.740822 55.917316,33.287830 55.651413,33.891457 
z"/>
<path fill="#0B0C0D" opacity="1.000000" stroke="none" 
	d="
M45.900070,20.673141 
	C45.560562,20.917282 45.101067,20.887989 44.299904,20.922379 
	C43.929340,20.390247 43.900452,19.794437 43.971725,18.982128 
	C44.641289,19.310322 45.210682,19.855015 45.900070,20.673141 
z"/>
<path fill="#57769D" opacity="1.000000" stroke="none" 
	d="
M21.055470,35.346397 
	C24.318680,36.285198 30.389820,44.847542 30.074158,47.945805 
	C30.028795,48.391026 29.215878,48.758045 28.355297,49.193520 
	C26.980766,48.349926 26.009109,47.474072 25.029770,46.016296 
	C25.217316,44.553951 25.412546,43.673531 25.607780,42.793106 
	C24.101669,40.425442 22.595560,38.057774 21.055470,35.346397 
z"/>
<path fill="#536882" opacity="1.000000" stroke="none" 
	d="
M3.700263,28.268047 
	C3.554918,27.558342 3.589190,27.111406 3.583352,26.329590 
	C4.582192,25.231489 5.621142,24.468267 7.043334,23.444246 
	C7.426576,23.183449 7.757920,23.097233 7.757920,23.097233 
	C8.354564,24.071016 8.843916,25.776730 9.567749,25.882835 
	C11.837941,26.215612 14.196449,25.945906 16.937962,26.297335 
	C17.481846,27.213999 17.608519,27.742897 17.735191,28.271793 
	C14.048336,28.254351 10.361480,28.236908 6.207484,28.762222 
	C5.608666,29.452990 5.476989,29.600996 5.345311,29.749001 
	C4.856835,29.342939 4.368358,28.936878 3.700263,28.268047 
z"/>
<path fill="#54749B" opacity="1.000000" stroke="none" 
	d="
M21.186497,28.304047 
	C21.325565,28.508932 21.502064,28.673729 21.644634,29.172077 
	C21.041643,30.684511 20.510010,31.823303 19.978376,32.962097 
	C19.978376,32.962097 19.955629,33.147514 19.988430,33.234901 
	C19.264891,31.861544 18.508551,30.400797 17.722633,28.190306 
	C17.655220,26.942383 17.617384,26.444204 17.579548,25.946024 
	C17.729855,25.500145 17.880161,25.054266 18.645092,24.332428 
	C20.414936,24.262539 21.570154,24.468611 22.725374,24.674685 
	C22.725374,24.674685 22.452959,24.928146 22.002781,25.216293 
	C21.430567,26.437643 21.308531,27.370846 21.186497,28.304047 
z"/>
<path fill="#050606" opacity="1.000000" stroke="none" 
	d="
M17.907295,40.455322 
	C17.372591,39.822014 17.048622,39.167599 16.724655,38.513187 
	C17.152966,38.448997 17.581274,38.384804 18.009583,38.320610 
	C18.045732,39.025146 18.081882,39.729683 17.907295,40.455322 
z"/>
<path fill="#050606" opacity="1.000000" stroke="none" 
	d="
M11.035620,33.830719 
	C10.596822,33.735291 10.278106,33.528728 9.959391,33.322163 
	C10.159005,33.135292 10.358618,32.948421 10.558231,32.761547 
	C10.757388,33.080891 10.956546,33.400238 11.035620,33.830719 
z"/>
<path fill="#050606" opacity="1.000000" stroke="none" 
	d="
M25.370684,42.947216 
	C25.412546,43.673531 25.217316,44.553951 24.886396,45.721039 
	C24.878336,45.038906 25.005962,44.070118 25.370684,42.947216 
z"/>
<path fill="#536882" opacity="1.000000" stroke="none" 
	d="
M5.938315,29.083376 
	C6.662602,29.431341 7.188918,30.000912 7.715235,30.570480 
	C7.066907,30.448233 6.418579,30.325983 5.557781,29.976368 
	C5.476989,29.600996 5.608666,29.452990 5.938315,29.083376 
z"/>
<path fill="#08090A" opacity="1.000000" stroke="none" 
	d="
M17.555290,25.920761 
	C17.617384,26.444204 17.655220,26.942383 17.647606,27.820736 
	C17.602158,28.200911 17.679123,28.197128 17.707157,28.234461 
	C17.608519,27.742897 17.481846,27.213999 17.408710,26.283695 
	C17.462244,25.882288 17.531033,25.895500 17.555290,25.920761 
z"/>
<path fill="#5A7A9F" opacity="1.000000" stroke="none" 
	d="
M22.789055,24.692879 
	C21.570154,24.468611 20.414936,24.262539 18.820377,24.025764 
	C20.516407,20.214228 22.651775,16.433392 25.133770,12.108871 
	C25.629251,10.713702 25.778105,9.862217 26.003666,8.677725 
	C26.043318,7.893781 26.006262,7.442845 25.969208,6.991909 
	C27.153316,6.044828 28.337425,5.097747 29.734528,3.897727 
	C30.878559,3.552951 31.809599,3.461114 32.969360,3.884323 
	C33.415588,4.911114 33.633099,5.422860 33.850609,5.934606 
	C33.857151,6.117248 33.863697,6.299889 33.951305,6.744463 
	C34.032372,10.843181 34.032372,14.679964 34.032372,19.029419 
	C33.250122,19.029419 32.037998,19.029419 30.412724,19.015621 
	C29.999575,19.001823 30.012506,18.993710 30.012506,18.993710 
	C30.605391,15.625910 31.198273,12.258109 31.747036,8.201098 
	C31.297220,7.610160 30.891525,7.708432 30.485828,7.806705 
	C27.697678,12.717317 24.909527,17.627928 22.337370,22.784655 
	C22.553362,23.030769 22.213934,23.070860 22.311523,22.797012 
	C22.194746,22.402599 21.980379,22.282032 21.766010,22.161465 
	C21.859081,22.487213 21.952152,22.812963 22.254562,23.500969 
	C22.605722,24.103413 22.747545,24.343596 22.889366,24.583776 
	C22.889366,24.583776 22.852737,24.711073 22.789055,24.692879 
z"/>
<path fill="#08090A" opacity="1.000000" stroke="none" 
	d="
M8.116175,23.032383 
	C7.757920,23.097233 7.426576,23.183449 7.255748,23.194000 
	C8.438611,21.632292 9.792302,20.060032 11.145993,18.487770 
	C11.675860,19.040443 12.205728,19.593119 12.735596,20.145792 
	C11.315207,21.086372 9.894817,22.026955 8.116175,23.032383 
z"/>
<path fill="#08090A" opacity="1.000000" stroke="none" 
	d="
M16.615009,14.849197 
	C17.295155,14.014390 17.953064,13.426976 18.610971,12.839562 
	C18.807392,13.376032 19.003813,13.912502 19.200232,14.448973 
	C18.331079,14.664845 17.461926,14.880718 16.615009,14.849197 
z"/>
<path fill="#020203" opacity="1.000000" stroke="none" 
	d="
M25.926960,9.010732 
	C25.778105,9.862217 25.629251,10.713702 25.220211,11.777209 
	C24.488749,11.741179 24.017471,11.493128 23.299507,10.801119 
	C23.027168,9.931938 23.001518,9.506716 22.975866,9.081492 
	C22.975866,9.081492 23.017473,9.023868 23.397053,9.008270 
	C24.493410,8.998692 25.210184,9.004712 25.926960,9.010732 
z"/>
<path fill="#08090A" opacity="1.000000" stroke="none" 
	d="
M26.003666,8.677725 
	C25.210184,9.004712 24.493410,8.998692 23.418945,8.980276 
	C23.842485,8.376551 24.623716,7.785223 25.687077,7.092902 
	C26.006262,7.442845 26.043318,7.893781 26.003666,8.677725 
z"/>
<path fill="#08090A" opacity="1.000000" stroke="none" 
	d="
M22.873962,9.262938 
	C23.001518,9.506716 23.027168,9.931938 23.063938,10.676843 
	C22.974058,10.479144 22.873058,9.961764 22.873962,9.262938 
z"/>
<path fill="#506A8A" opacity="1.000000" stroke="none" 
	d="
M20.276875,32.828842 
	C20.510010,31.823303 21.041643,30.684511 21.776608,29.297796 
	C25.074594,30.654636 28.169249,32.259399 31.710011,34.310463 
	C32.169895,35.518692 32.183670,36.280609 32.197441,37.042530 
	C29.361723,35.364765 26.589500,33.559021 23.645945,32.098610 
	C22.903824,31.730415 21.613680,32.466805 20.276875,32.828842 
z"/>
<path fill="#0D0E10" opacity="1.000000" stroke="none" 
	d="
M32.457108,37.054153 
	C32.183670,36.280609 32.169895,35.518692 32.047039,34.390892 
	C32.491947,34.945961 33.045933,35.866909 33.417412,36.947952 
	C33.062195,37.093956 32.889481,37.079865 32.457108,37.054153 
z"/>
<path fill="#020202" opacity="1.000000" stroke="none" 
	d="
M33.528282,50.983353 
	C33.545948,51.000370 33.510616,50.966335 33.528282,50.983353 
z"/>
<path fill="#020202" opacity="1.000000" stroke="none" 
	d="
M44.041916,12.949282 
	C43.084797,13.317526 42.079056,13.550270 40.561134,13.815542 
	C40.048946,13.848068 40.054531,13.531319 40.061291,13.374863 
	C41.111259,12.867386 42.154472,12.516365 43.485367,12.222310 
	C43.835876,12.461810 43.909290,12.639979 44.041916,12.949282 
z"/>
<path fill="#58769C" opacity="1.000000" stroke="none" 
	d="
M34.111782,5.904272 
	C33.633099,5.422860 33.415588,4.911114 33.126373,4.130094 
	C33.494091,4.531859 33.933525,5.202899 34.111782,5.904272 
z"/>
<path fill="#49586B" opacity="1.000000" stroke="none" 
	d="
M21.636784,28.218044 
	C21.308531,27.370846 21.430567,26.437643 21.827946,25.279896 
	C29.168840,25.264961 36.234394,25.474573 43.590172,25.388651 
	C43.729744,26.273540 43.579094,27.453966 43.143822,28.770729 
	C35.935158,28.648727 29.011114,28.390385 21.636784,28.218044 
z"/>
<path fill="#0B0C0D" opacity="1.000000" stroke="none" 
	d="
M30.002560,18.995522 
	C28.811720,20.378706 27.617895,21.768190 26.424072,23.157675 
	C25.966005,22.613726 25.507940,22.069777 25.049875,21.525829 
	C26.476362,20.710493 27.902849,19.895159 29.670921,19.036766 
	C30.012506,18.993710 29.999575,19.001823 30.002560,18.995522 
z"/>
<path fill="#0B0C0D" opacity="1.000000" stroke="none" 
	d="
M38.677505,20.791870 
	C37.861000,20.858711 37.029156,20.746687 36.197311,20.634665 
	C36.345615,20.194002 36.493919,19.753340 36.642223,19.312679 
	C37.315536,19.746120 37.988850,20.179562 38.677505,20.791870 
z"/>
<path fill="#0B0C0D" opacity="1.000000" stroke="none" 
	d="
M41.912674,22.534004 
	C41.668777,22.899132 41.318798,23.126690 40.965614,23.679459 
	C41.243805,23.468588 41.525200,22.932510 41.912674,22.534004 
z"/>
<path fill="#54749B" opacity="1.000000" stroke="none" 
	d="
M22.213934,23.070860 
	C22.213934,23.070860 22.553362,23.030769 22.724056,23.026733 
	C23.060741,23.472015 23.226734,23.921329 23.141045,24.477211 
	C22.747545,24.343596 22.605722,24.103413 22.279762,23.441795 
	C22.095625,23.020363 22.213934,23.070860 22.213934,23.070860 
z"/>
<path fill="#0B0C0D" opacity="1.000000" stroke="none" 
	d="
M30.789419,7.864290 
	C30.891525,7.708432 31.297220,7.610160 31.703445,7.763406 
	C31.500319,7.983908 31.296663,7.952893 30.789419,7.864290 
z"/>
<path fill="#0D0E10" opacity="1.000000" stroke="none" 
	d="
M41.443726,30.066189 
	C41.797256,30.174959 41.827377,30.369596 41.917816,30.853439 
	C40.369343,32.381012 38.760555,33.619377 37.151764,34.857742 
	C36.802380,34.451332 36.452991,34.044926 36.103607,33.638515 
	C37.775845,32.476364 39.448082,31.314209 41.443726,30.066189 
z"/>
<path fill="#050607" opacity="1.000000" stroke="none" 
	d="
M22.070425,23.079536 
	C21.952152,22.812963 21.859081,22.487213 21.766010,22.161465 
	C21.980379,22.282032 22.194746,22.402599 22.311523,22.797012 
	C22.213934,23.070860 22.095625,23.020363 22.070425,23.079536 
z"/>
</svg>